# Blender v2.81 (sub 16) OBJ File: ''
# www.blender.org
mtllib Tes_Blender.mtl
o Plane
v -3.353682 0.000000 3.353682
v 3.353682 0.000000 3.353682
v -3.353682 0.000000 -3.353682
v 3.353682 0.000000 -3.353682
v -3.353682 0.000000 0.000000
v 0.000000 0.000000 3.353682
v 3.353682 0.000000 0.000000
v 0.000000 0.000000 -3.353682
v 0.000000 1.827530 0.000000
vt 0.500000 0.500000
vt 1.000000 0.500000
vt 1.000000 1.000000
vt 0.500000 1.000000
vt 0.000000 0.500000
vt 0.000000 1.000000
vt 0.000000 0.000000
vt 0.500000 0.000000
vt 1.000000 0.000000
vn 0.2542 0.9331 -0.2542
vn -0.2542 0.9331 -0.2542
vn -0.2542 0.9331 0.2542
vn 0.2542 0.9331 0.2542
usemtl Test
s off
f 9/1/1 7/2/1 4/3/1 8/4/1
f 5/5/2 9/1/2 8/4/2 3/6/2
f 1/7/3 6/8/3 9/1/3 5/5/3
f 6/8/4 2/9/4 7/2/4 9/1/4
